<?xml version="1.0" encoding="utf-8"?>
<?xml-stylesheet type="text/xsl" href="rss1.xsl"?>
<rss version="2.0" xmlns:atom="http://www.w3.org/2005/Atom" xmlns:content="http://purl.org/rss/1.0/modules/content/" xmlns:dc="http://purl.org/dc/elements/1.1/" xmlns:media="http://search.yahoo.com/mrss/">
<channel>
 <title>Getty</title>
 <link>http://www.gettyimg.com/</link>
 <atom:link href="http://www.gettyimg.com/" rel="self" type="application/rss+xml" />

 
                <item>
                <title><![CDATA[【Interviews / TV shows / Others】WEB-DL - 29th Annual Critics Choice Awards 2024 STAN 1080p WEB-DL AAC2.0 H.264]]></title>
                <link><![CDATA[https://sharemania.us/threads/29th-annual-critics-choice-awards-2024-stan-1080p-web-dl-aac2-0-h-264.235849/]]></link>
                <description><![CDATA[<article>
<blockquote class="messageText SelectQuoteContainer ugc baseHtml">
<img src="https://streamcoimg-a.akamaihd.net/000/433/5810/4335810-PosterArt-31c5e27ef08479df6dd0a408178ec2c1.jpg" class="bbCodeImage LbImage" alt="[​IMG]" data-url="https://streamcoimg-a.akamaihd.net/000/433/5810/4335810-PosterArt-31c5e27ef08479df6dd0a408178ec2c1.jpg" style=""> <br>
<img src="https://i.postimg.cc/Hs1wF6Xj/29th-Annual-Critics-Choice-Awards-STAN-1080p-WEB-DL-AAC2-0-H-264-mkv.jpg" class="bbCodeImage LbImage" alt="[​IMG]" data-url="https://i.postimg.cc/Hs1wF6Xj/29th-Annual-Critics-Choice-Awards-STAN-1080p-WEB-DL-AAC2-0-H-264-mkv.jpg" style=""> <br>
<div class="ToggleTriggerAnchor bbCodeSpoilerContainer">
<button type="button" class="button bbCodeSpoilerButton ToggleTrigger Tooltip JsOnly" data-target="> .SpoilerTarget"><span>Spoiler: <span class="SpoilerTitle">Media Info</span></span></button>
<div class="SpoilerTarget bbCodeSpoilerText">General<br>
Unique ID : 317263534851673804945462171497052717300 (0xEEAEBBF4BF5261D7D645F10632C740F4)<br>
Complete name : 29th Annual Critics Choice Awards STAN 1080p WEB-DL AAC2.0 H.264.mkv<br>
Format : Matroska<br>
Format version : Version 4<br>
File size : 5.57 GiB<br>
Duration : 2 h 5 min<br>
Overall bit rate : 6 349 kb/s<br>
Frame rate : 50.000 FPS<br>
Encoded date : 2024-01-15 14:59:53 UTC<br>
Writing application : mkvmerge v80.0 ('Roundabout') 64-bit<br>
Writing library : libebml v1.4.4 + libmatroska v1.7.1 / Lavf60.3.100<br>
<br>
Video<br>
ID : 1<br>
Format : AVC<br>
Format/Info : Advanced Video Codec<br>
Format profile : High@L4<br>
Format settings : CABAC / 4 Ref Frames<br>
Format settings, CABAC : Yes<br>
Format settings, Reference frames : 4 frames<br>
Codec ID : V_MPEG4/ISO/AVC<br>
Duration : 2 h 5 min<br>
Bit rate : 6 219 kb/s<br>
Width : 1 920 pixels<br>
Height : 1 080 pixels<br>
Display aspect ratio : 16:9<br>
Frame rate mode : Constant<br>
Frame rate : 50.000 FPS<br>
Color space : YUV<br>
Chroma subsampling : 4:2:0<br>
Bit depth : 8 bits<br>
Scan type : Progressive<br>
Bits/(Pixel*Frame) : 0.060<br>
Stream size : 5.46 GiB (98%)<br>
Default : Yes<br>
Forced : No<br>
Color range : Limited<br>
Color primaries : BT.709<br>
Transfer characteristics : BT.709<br>
Matrix coefficients : BT.709<br>
<br>
Audio<br>
ID : 2<br>
Format : AAC LC<br>
Format/Info : Advanced Audio Codec Low Complexity<br>
Codec ID : 2 / A_AAC-2<br>
Duration : 2 h 5 min<br>
Bit rate : 126 kb/s<br>
Channel(s) : 2 channels<br>
Channel layout : L R<br>
Sampling rate : 44.1 kHz<br>
Frame rate : 43.066 FPS (1024 SPF)<br>
Compression mode : Lossy<br>
Stream size : 113 MiB (2%)<br>
Language : English<br>
Default : Yes<br>
Forced : No</div>
</div>Ripped by me <img src="styles/default/xenforo/smilies/big_smile-48.png" class="mceSmilie" alt=":)" title="Smile    :)"><br>
<div class="bbCodeBlock bbCodeVfcHH HiddenContent">
<div class="attribution type">Hidden Content:</div>
<blockquote>You must either reply or click 'Like' to see the hidden information contained here.</blockquote>
</div>
<div class="messageTextEndMarker">&nbsp;</div>
</blockquote>
</article>]]></description>
                <author><![CDATA[szymek04sawicki]]></author>
                </item>

                
                <item>
                <title><![CDATA[【HD Live Performances】UPSCALE - Taylor Swift - Cruel Summer (The Eras Tour Film) DS4K 1080P 60FPS Upscale]]></title>
                <link><![CDATA[https://sharemania.us/threads/taylor-swift-cruel-summer-the-eras-tour-film-ds4k-1080p-60fps-upscale.235843/]]></link>
                <description><![CDATA[<article>
<blockquote class="messageText SelectQuoteContainer ugc baseHtml">
<div style="text-align: center"><span style="color: #59b300">UPSCALED BY ME: </span><span style="color: #ff0000">Avril1255 <img src="styles/default/xenforo/smilies/big_smile-48.png" class="mceSmilie" alt=":)" title="Smile    :)"><img src="styles/default/xenforo/smilies/big_smile-48.png" class="mceSmilie" alt=":)" title="Smile    :)"></span>​</div><br>
<div style="text-align: center"><span style="color: #00b300">Changed its frame rate up to </span><span style="color: #ff0000">60FPS‼️</span>​</div><img src="https://i.imgur.com/vBkEO6t.jpeg" class="bbCodeImage LbImage" alt="[​IMG]" data-url="https://i.imgur.com/vBkEO6t.jpeg" style=""> <img src="https://i.imgur.com/2FlBu33.jpeg" class="bbCodeImage LbImage" alt="[​IMG]" data-url="https://i.imgur.com/2FlBu33.jpeg" style=""> <img src="https://i.imgur.com/TmrwmW2.jpeg" class="bbCodeImage LbImage" alt="[​IMG]" data-url="https://i.imgur.com/TmrwmW2.jpeg" style=""> <img src="https://i.imgur.com/jZPJayX.jpeg" class="bbCodeImage LbImage" alt="[​IMG]" data-url="https://i.imgur.com/jZPJayX.jpeg" style=""> <img src="https://i.imgur.com/Y4Hbnro.jpeg" class="bbCodeImage LbImage" alt="[​IMG]" data-url="https://i.imgur.com/Y4Hbnro.jpeg" style=""> <img src="https://i.imgur.com/C6mpLij.jpeg" class="bbCodeImage LbImage" alt="[​IMG]" data-url="https://i.imgur.com/C6mpLij.jpeg" style=""><br>
<br>
<div class="ToggleTriggerAnchor bbCodeSpoilerContainer">
<button type="button" class="button bbCodeSpoilerButton ToggleTrigger Tooltip JsOnly" data-target="> .SpoilerTarget"><span>Spoiler: <span class="SpoilerTitle">MediaInfo</span></span></button>
<div class="SpoilerTarget bbCodeSpoilerText">General<br>
File size : 1.06 GiB<br>
Duration : 3 min 45 s<br>
Overall bit rate : 40.1 Mb/s<br>
<br>
Video<br>
ID : 1<br>
Format : AVC<br>
Format/Info : Advanced Video Codec<br>
Format profile : High@L4.2<br>
Format settings : CABAC / 1 Ref Frames<br>
Format settings, CABAC : Yes<br>
Format settings, Reference fra : 1 frame<br>
Format settings, GOP : M=1, N=30<br>
Codec ID : V_MPEG4/ISO/AVC<br>
Duration : 3 min 45 s<br>
Width : 1 920 pixels<br>
Height : 800 pixels<br>
Display aspect ratio : 2.40:1<br>
Frame rate mode : Constant<br>
Frame rate : 60.000 FPS<br>
Standard : Component<br>
Color space : YUV<br>
Chroma subsampling : 4:2:0<br>
Bit depth : 8 bits<br>
Scan type : Progressive<br>
Writing library : Lavc60.27.101 h264_amf<br>
Default : No<br>
Forced : No<br>
Color range : Limited<br>
Matrix coefficients : BT.709<br>
VENDOR_ID : [0][0][0][0]<br>
<br>
Audio<br>
ID : 2<br>
Format : AAC LC<br>
Format/Info : Advanced Audio Codec Low Complexity<br>
Codec ID : A_AAC-2<br>
Duration : 3 min 45 s<br>
Channel(s) : 2 channels<br>
Channel layout : L R<br>
Sampling rate : 44.1 kHz<br>
Frame rate : 43.066 FPS (1024 SPF)<br>
Compression mode : Lossy<br>
Delay relative to video : -17 ms<br>
Writing library : Lavc60.27.101 h264_amf<br>
Default : Yes<br>
Forced : No<br>
VENDOR_ID : [0][0][0][0]</div>
</div><br>
<div class="bbCodeBlock bbCodeVfcHH HiddenContent">
<div class="attribution type">Hidden Content:</div>
<blockquote>You must reply before you can see the hidden data contained here.</blockquote>
</div>
<div class="messageTextEndMarker">&nbsp;</div>
</blockquote>
</article>]]></description>
                <author><![CDATA[Avril1255]]></author>
                </item>

                </channel></rss>